<svg height="63.19988253391462" width="150" style="width: 150px; height: 63.1999px; position: absolute; top: 50%; left: 50%; transform: translate(-50%, -50%) scale(1); z-index: 0; cursor: pointer; overflow: visible;" xmlns="http://www.w3.org/2000/svg">
  <g id="SvgjsG1008" featurekey="nameFeature-0" transform="matrix(1.6479786009549504,0,0,1.6479786009549504,-0.05895595290024049,-23.376929192275234)" fill="#ffffff">
    <path d="M19.92 23.96 c0.68 -0.24 1.8 -0.84 2.08 -2.12 c0.32 -1.52 -0.4 -2.56 -2.24 -2.88 c-2.04 -0.36 -6.2 0.36 -10.12 2.2 c-3.36 1.6 -6.88 4.04 -7.52 6.8 c-0.6 2.76 0.76 4.92 4.72 8.6 c1.16 1.08 2.16 2.04 3 2.92 c4.36 -1.76 12.72 -4.12 13.68 -4.32 c1.04 -0.24 1.24 0.24 0.16 0.44 c-0.92 0.2 -8.84 2.48 -13.32 4.4 c3.08 3.24 4.12 5.32 3.72 7.88 c-0.48 3.2 -4.44 5 -8.56 4.6 c-3.96 -0.36 -5.8 -2.68 -5.44 -4.8 c0.52 -2.8 4.12 -5.36 8.04 -7.4 c0.24 -0.16 0.6 -0.28 0.92 -0.44 c-0.76 -0.8 -1.72 -1.72 -2.76 -2.76 c-4.4 -4.16 -5.92 -6.32 -5.28 -9.28 s3.08 -5.2 8.16 -7.44 c5.12 -2.28 8.6 -2.52 10.76 -2.16 c2.36 0.4 3.24 1.96 2.84 3.84 c-0.4 1.68 -2.12 2.52 -2.6 2.56 c-0.48 0.08 -0.72 -0.44 -0.24 -0.64 z M13.16 47.68 c0.32 -2 -0.4 -3.84 -3.6 -7.32 c-0.36 0.16 -0.64 0.32 -0.92 0.48 c-4.92 2.68 -7.32 4.68 -7.72 6.84 c-0.32 1.84 1.36 3.64 4.64 3.88 c4 0.24 7.2 -1.64 7.6 -3.88 z M42.094 16.44 c-0.12 0.44 -0.24 1 -0.36 1.64 c3.72 -0.24 7.52 -0.36 10.96 -0.48 c8.4 -0.32 11.36 -0.16 12.12 -0.44 c0.76 -0.24 0.72 0.08 0.44 0.36 c-0.16 0.2 -0.84 0.72 -1.48 0.72 c-0.6 0.04 -6.24 0.04 -11.28 0.24 c-4.16 0.16 -7.8 0.32 -10.96 0.56 c-0.52 2.48 -1.2 6.16 -1.84 11.2 c-0.96 7.28 -2.84 18.4 -3 19.72 c-0.12 1.32 -1.04 2.72 -1.04 1.68 s0.72 -6.68 3 -21.24 c0.84 -5.44 1.52 -9 2.04 -11.32 c-2.56 0.2 -4.8 0.4 -6.6 0.68 c-4.88 0.76 -8.76 1.72 -8.92 2.68 c-0.12 0.68 -0.56 0.6 -0.76 0.16 c-0.28 -0.76 0.04 -1.56 6.64 -3.12 c2.92 -0.68 6.32 -1.08 9.84 -1.32 c0.72 -3 1.16 -3.44 1.48 -3.76 c0.6 -0.56 1.12 0.12 0.68 0.4 c-0.48 0.28 -0.72 0.64 -0.96 1.64 z M79.548 22.36 c1.76 0.12 0.76 1.6 -0.16 2.64 c-0.96 1.04 -5.88 5.28 -13.48 11.64 c-3.56 3 -9.84 8.44 -11.48 9.76 c2.64 -0.56 7.88 -1.16 14.56 -0.8 c9.96 0.52 18.24 2.24 21.56 5.04 c0.96 0.84 0.4 1.2 -0.36 0.56 c-2.56 -2.2 -12.52 -4.32 -21.24 -4.68 c-6.24 -0.28 -10.48 0.12 -14.64 0.92 c-1.08 0.2 -1.52 -0.92 -0.4 -1.76 c1.48 -1.08 2.76 -2.76 11.56 -9.8 c5.92 -4.72 11.96 -9.92 13.16 -11.24 c1.2 -1.28 1.12 -1.56 0.64 -1.64 c-2.2 -0.2 -8 -0.28 -13.36 0.32 c-11.2 1.24 -11.92 4.16 -10.16 6.08 c0.56 0.6 -0.16 1.04 -0.84 0.56 c-1.44 -1.04 -2.8 -6.04 10.84 -7.44 c5.68 -0.56 11.28 -0.36 13.8 -0.16 z"/>
  </g>
</svg>
